<svg xmlns="http://www.w3.org/2000/svg" viewBox="0 0 280 64" role="img" aria-label="Babcom">
  <style>
    .b-text { font: 800 38px/1 'Montserrat', system-ui, sans-serif; letter-spacing: 1.5px; fill: #0F1B22; }
    .b-dot  { fill: #14587F; }
  </style>
  <g>
    <rect x="0" y="14" width="36" height="36" rx="10" fill="#0F1B22"/>
    <path d="M9 44V20h10c4.1 0 7.4 2.4 7.4 5.6 0 1.95-1.15 3.65-2.95 4.45 2.8.7 4.6 2.8 4.6 5.35 0 3.25-3.4 6-7.75 6H9zm5-12h5c1.8 0 3.1-1 3.1-2.4S20.8 27.2 19 27.2h-5V32zm0 8h5.4c2.05 0 3.6-1.15 3.6-2.7 0-1.5-1.55-2.7-3.6-2.7H14V40z" fill="#fff"/>
    <circle cx="32" cy="20" r="4" class="b-dot"/>
  </g>
  <text x="48" y="44" class="b-text">BABCOM</text>
</svg>
